<svg xmlns="http://www.w3.org/2000/svg" xmlns:xlink="http://www.w3.org/1999/xlink" width="128" height="128"><defs><linearGradient id="c" x1="44.672" x2="42.797" y1="6.301" y2="2.424" gradientTransform="matrix(8 0 0 8 -256 0)" gradientUnits="userSpaceOnUse"><stop offset="0" stop-color="#33440e"/><stop offset="1" stop-color="#438826"/></linearGradient><linearGradient id="d" x1="38.06" x2="39.488" y1="4.181" y2="13.484" gradientTransform="matrix(8 0 0 8 -256 0)" gradientUnits="userSpaceOnUse"><stop offset="0" stop-color="#29b721"/><stop offset="1" stop-color="#0a6306"/></linearGradient><linearGradient xlink:href="#a" id="e" x1="37.489" x2="38.97" y1="6.546" y2="8.086" gradientTransform="matrix(8 0 0 8 -256 0)" gradientUnits="userSpaceOnUse"/><linearGradient id="a"><stop offset="0" stop-color="#80c455"/><stop offset="1" stop-color="#48ac3e"/></linearGradient><linearGradient xlink:href="#b" id="f" x1="37.489" x2="38.729" y1="6.546" y2="9.271" gradientTransform="matrix(8 0 0 8 -256 0)" gradientUnits="userSpaceOnUse"/><linearGradient id="b"><stop offset="0" stop-color="#b9e59a"/><stop offset="1" stop-color="#6fac65"/></linearGradient><linearGradient xlink:href="#a" id="g" x1="39.472" x2="41.627" y1="8.528" y2="10.349" gradientTransform="matrix(8 0 0 8 -256 0)" gradientUnits="userSpaceOnUse"/><linearGradient xlink:href="#b" id="h" x1="39.472" x2="39.043" y1="8.528" y2="11.747" gradientTransform="matrix(8 0 0 8 -256 0)" gradientUnits="userSpaceOnUse"/></defs><path fill="#d5ffbc" d="m69.435 25.913 18.021 14.634 15.786 19.826 5.304-23.12c-1.666-4.363-13.274-14.062-17.562-16.287-7.183 1.648-14.367 3.299-21.55 4.948z" color="#000"/><path fill="url(#c)" fill-opacity=".8" d="m91.523 16.738-1.434.328c-7.183 1.648-14.368 3.3-21.55 4.95l-7.99 1.833 6.364 5.17 17.684 14.36 20.688 25.98 7.432-32.397-.434-1.136c-.792-2.076-2.058-3.586-3.595-5.31s-3.37-3.496-5.278-5.196c-3.816-3.4-7.64-6.377-10.582-7.905zm-1.305 8.506c1.78 1.128 4.902 3.408 7.87 6.05 1.737 1.549 3.387 3.157 4.628 4.55.928 1.04 1.258 1.63 1.563 2.119L101.2 51.387 90.314 37.715l-11.992-9.739 11.896-2.732z" color="#000"/><path fill="#26a61d" d="m87.16 0-1.964 23.862 9.181.062L92.527 0zM127.88 33.9l-23.022-1.582.062 8 22.996-2.148z" color="#000"/><path fill="#4eb545" d="M80.112 31.573c-6.243-5.518-26.089-4.587-31.757.913L23.117 56.98c-3.67 3.562-4.989 17.38-1.499 22.214 6.897 9.552 15.49 16.745 24.57 24.01 4.247 3.397 23.391 1.42 26.722-1.957l23.274-23.59c5.457-5.531 5.663-23.838.222-29.93l-7.434-8.324z" color="#000"/><path fill="url(#d)" d="M63.875 23.9c-7.02.25-13.877 1.418-18.305 5.715L20.332 54.107c-3.519 3.414-4.243 8.153-4.637 13.189-.393 5.036-.264 10.159 2.68 14.236 7.262 10.058 16.19 17.49 25.314 24.79 2.354 1.884 4.821 2.189 7.607 2.462 2.786.273 5.874.225 8.938-.037 3.064-.263 6.079-.74 8.701-1.424 2.622-.684 4.781-1.201 6.822-3.27l23.273-23.59c4.26-4.318 5.291-10.897 5.35-17.529.059-6.632-.929-13.326-4.992-17.875l-7.592-8.5-9.035-7.984c-4.781-4.226-11.867-4.927-18.887-4.676zm.285 7.994c5.881-.21 11.841 1.384 13.303 2.676l8.682 7.672 7.277 8.148c1.378 1.543 3.007 7.048 2.96 12.475-.05 5.427-1.85 10.768-3.046 11.98l-23.273 23.59c.376-.38-1.107.616-3.144 1.147-2.037.53-4.698.966-7.368 1.195-2.67.229-5.372.251-7.474.045-2.102-.206-3.62-.929-3.389-.744-9.035-7.229-17.295-14.18-23.826-23.227-.546-.757-1.502-4.96-1.191-8.932s2.08-7.923 2.232-8.07l25.238-24.492c1.24-1.204 7.139-3.253 13.02-3.463z" color="#000"/><g stroke-width="8" color="#000"><path fill="#29b721" d="m62.152.609-5.75.357 1.356 25.72 13.605-1.377z"/><path fill="#27b21f" d="m26.552 15.723-5.442 5.513 15.774 21.473 8.501-9.103z"/><path fill="#21a21a" d="M5.4 41.034.38 44.785 17.31 66.28l6.662-11.803z"/></g><path fill="url(#e)" d="m83.512 44.274-3.694-3.78c-4.132-4.23-20.133-12.072-27.488-4.507L30.851 58.079c-8.319 8.556-3.579 19.725 4.279 26.436l4.425 3.78z" color="#000"/><path fill="url(#f)" d="M58.559 28.938c-3.316.36-6.51 1.601-9.096 4.26L27.983 55.29c-5.03 5.174-6.334 11.849-4.947 17.633s5.036 10.825 9.496 14.635l7.238 6.181 49.365-49.434-2.761-2.826-3.694-3.781c-3.006-3.077-8.175-5.988-14.305-7.728-3.065-.87-6.5-1.392-9.816-1.032zm1.178 7.934c1.882-.165 4.084.12 6.455.793 4.742 1.346 9.64 4.472 10.766 5.625l.931.955L39.34 82.85l-1.612-1.377c-3.397-2.902-6.045-6.801-6.912-10.418-.867-3.617-.384-6.806 2.904-10.188L55.2 38.775c1.093-1.123 2.656-1.74 4.537-1.905z" color="#000"/><path fill="url(#g)" d="M87.901 48.858c5.298 5.633 8.412 19.001 3.39 24.112l-20.83 21.2c-4.204 4.279-18.122 6.183-26.41-1.461l-4.383-4.043c13.287-15.77 26.893-31.313 43.924-44.39l4.308 4.582z" color="#000"/><path fill="url(#h)" d="m84.027 38.898-2.871 2.205c-17.43 13.382-31.227 29.174-44.547 44.984l-2.465 2.926 7.195 6.635c5.086 4.69 11.66 6.326 17.492 6.261 5.833-.064 11.042-1.435 14.482-4.937l20.83-21.2c4.023-4.093 4.196-9.966 3.262-15.347s-3.128-10.627-6.592-14.31c-1.436-1.526-2.873-3.054-4.306-4.58zm-.76 10.871 1.719 1.828c1.835 1.95 3.847 6.207 4.54 10.195.691 3.989-.09 7.356-1.089 8.373l-20.83 21.201c-.763.777-4.613 2.496-8.863 2.543-4.25.047-8.779-1.19-11.98-4.142l-1.547-1.428c11.691-13.788 23.734-27.082 38.051-38.57z" color="#000"/><g stroke-width="8" color="#000"><path fill="#1b8d14" d="M101.02 57.216 99.592 68.71l23.39 8.58 1.786-5.897z"/><path fill="#12770d" d="m93.64 81.624-8.02 8.673 21.859 15.326 4.905-6.21z"/><path fill="#0b6607" d="m70.064 103.38-14.223 3.452 21.404 21.137 6.15-5.152z"/></g><path fill="#fff" d="M64 64h64v64H64z"/><path d="M64 64v64h64V64zm58.165 46.118h-11.576V94.495c0-4.8-1.6-6.588-4.706-6.588-3.764 0-5.27 2.73-5.27 6.494v9.6h3.67v6.023H92.707V94.495c0-4.8-1.6-6.588-4.706-6.588-3.764 0-5.27 2.73-5.27 6.494v9.6H88v6.024h-16.94V104h3.67V88.472h-3.67V82.45h11.575v4.14c1.695-2.917 4.518-4.705 8.377-4.705 3.953 0 7.623 1.882 8.941 5.93 1.506-3.671 4.612-5.93 8.941-5.93 4.988 0 9.506 3.012 9.506 9.506v12.706h3.765z"/></svg>
